<svg width="50" height="50" viewBox="0 0 50 50" fill="none" xmlns="http://www.w3.org/2000/svg">
<path fill-rule="evenodd" clip-rule="evenodd" d="M8.85529 39.5835C8.85529 39.1691 9.01991 38.7717 9.31293 38.4786C9.60596 38.1856 10.0034 38.021 10.4178 38.021H39.5845C39.9989 38.021 40.3963 38.1856 40.6893 38.4786C40.9823 38.7717 41.147 39.1691 41.147 39.5835C41.147 39.9979 40.9823 40.3953 40.6893 40.6884C40.3963 40.9814 39.9989 41.146 39.5845 41.146H10.4178C10.0034 41.146 9.60596 40.9814 9.31293 40.6884C9.01991 40.3953 8.85529 39.9979 8.85529 39.5835ZM15.1053 45.8335C15.1053 45.4191 15.2699 45.0217 15.5629 44.7286C15.856 44.4356 16.2534 44.271 16.6678 44.271H33.3345C33.7489 44.271 34.1463 44.4356 34.4393 44.7286C34.7323 45.0217 34.897 45.4191 34.897 45.8335C34.897 46.2479 34.7323 46.6453 34.4393 46.9384C34.1463 47.2314 33.7489 47.396 33.3345 47.396H16.6678C16.2534 47.396 15.856 47.2314 15.5629 46.9384C15.2699 46.6453 15.1053 46.2479 15.1053 45.8335Z" fill="black"/>
<path d="M12.674 31.7708C11.4989 29.6294 10.9018 27.2189 10.9415 24.7766C10.9813 22.3343 11.6565 19.9445 12.9007 17.8425C14.1448 15.7404 15.9151 13.9988 18.0371 12.7889C20.159 11.5791 22.5595 10.9429 25.0022 10.9429C27.4448 10.9429 29.8453 11.5791 31.9673 12.7889C34.0892 13.9988 35.8595 15.7404 37.1037 17.8425C38.3479 19.9445 39.0231 22.3343 39.0628 24.7766C39.1025 27.2189 38.5054 29.6294 37.3303 31.7708H45.8345C46.2489 31.7708 46.6463 31.9354 46.9393 32.2285C47.2323 32.5215 47.397 32.9189 47.397 33.3333C47.397 33.7477 47.2323 34.1451 46.9393 34.4382C46.6463 34.7312 46.2489 34.8958 45.8345 34.8958H4.16779C3.75338 34.8958 3.35596 34.7312 3.06293 34.4382C2.76991 34.1451 2.60529 33.7477 2.60529 33.3333C2.60529 32.9189 2.76991 32.5215 3.06293 32.2285C3.35596 31.9354 3.75338 31.7708 4.16779 31.7708H12.674Z" fill="black"/>
<path fill-rule="evenodd" clip-rule="evenodd" d="M25.0011 2.604C25.4155 2.604 25.8129 2.76862 26.106 3.06165C26.399 3.35468 26.5636 3.7521 26.5636 4.1665V6.24984C26.5636 6.66424 26.399 7.06167 26.106 7.35469C25.8129 7.64772 25.4155 7.81234 25.0011 7.81234C24.5867 7.81234 24.1893 7.64772 23.8963 7.35469C23.6032 7.06167 23.4386 6.66424 23.4386 6.24984V4.1665C23.4386 3.7521 23.6032 3.35468 23.8963 3.06165C24.1893 2.76862 24.5867 2.604 25.0011 2.604ZM9.1657 9.16442C9.45867 8.87182 9.85581 8.70746 10.2699 8.70746C10.6839 8.70746 11.0811 8.87182 11.374 9.16442L12.1928 9.98109C12.4776 10.2756 12.6352 10.6703 12.6319 11.0799C12.6285 11.4896 12.4644 11.8816 12.1748 12.1714C11.8852 12.4613 11.4934 12.6258 11.0837 12.6295C10.674 12.6333 10.2793 12.476 9.98445 12.1915L9.1657 11.3728C8.8731 11.0798 8.70874 10.6827 8.70874 10.2686C8.70874 9.85452 8.8731 9.45739 9.1657 9.16442ZM40.8365 9.16442C41.1291 9.45739 41.2935 9.85452 41.2935 10.2686C41.2935 10.6827 41.1291 11.0798 40.8365 11.3728L40.0178 12.1915C39.7216 12.4675 39.3298 12.6178 38.925 12.6106C38.5202 12.6035 38.134 12.4395 37.8477 12.1532C37.5615 11.8669 37.3975 11.4807 37.3903 11.0759C37.3832 10.6711 37.5335 10.2794 37.8095 9.98317L38.6282 9.16442C38.9212 8.87182 39.3183 8.70746 39.7324 8.70746C40.1464 8.70746 40.5436 8.87182 40.8365 9.16442ZM2.60529 24.9998C2.60529 24.5854 2.76991 24.188 3.06293 23.895C3.35596 23.602 3.75338 23.4373 4.16779 23.4373H6.25112C6.66552 23.4373 7.06295 23.602 7.35597 23.895C7.649 24.188 7.81362 24.5854 7.81362 24.9998C7.81362 25.4142 7.649 25.8117 7.35597 26.1047C7.06295 26.3977 6.66552 26.5623 6.25112 26.5623H4.16779C3.75338 26.5623 3.35596 26.3977 3.06293 26.1047C2.76991 25.8117 2.60529 25.4142 2.60529 24.9998ZM42.1886 24.9998C42.1886 24.5854 42.3532 24.188 42.6463 23.895C42.9393 23.602 43.3367 23.4373 43.7511 23.4373H45.8345C46.2489 23.4373 46.6463 23.602 46.9393 23.895C47.2323 24.188 47.397 24.5854 47.397 24.9998C47.397 25.4142 47.2323 25.8117 46.9393 26.1047C46.6463 26.3977 46.2489 26.5623 45.8345 26.5623H43.7511C43.3367 26.5623 42.9393 26.3977 42.6463 26.1047C42.3532 25.8117 42.1886 25.4142 42.1886 24.9998Z" fill="black"/>
</svg>
