<?xml version="1.0" encoding="UTF-8"?>
<!DOCTYPE svg PUBLIC "-//W3C//DTD SVG 1.1//EN" "http://www.w3.org/Graphics/SVG/1.1/DTD/svg11.dtd">
<svg xmlns="http://www.w3.org/2000/svg" version="1.1" width="1024px" height="1024px" style="shape-rendering:geometricPrecision; text-rendering:geometricPrecision; image-rendering:optimizeQuality; fill-rule:evenodd; clip-rule:evenodd" xmlns:xlink="http://www.w3.org/1999/xlink">
<g><path style="opacity:1" fill="#fefefe" d="M -0.5,-0.5 C 340.833,-0.5 682.167,-0.5 1023.5,-0.5C 1023.5,340.833 1023.5,682.167 1023.5,1023.5C 682.167,1023.5 340.833,1023.5 -0.5,1023.5C -0.5,682.167 -0.5,340.833 -0.5,-0.5 Z"/></g>
<g><path style="opacity:1" fill="#173254" d="M 251.5,381.5 C 254.044,381.104 256.211,381.771 258,383.5C 258.667,390.167 258.667,396.833 258,403.5C 255.333,406.167 252.667,406.167 250,403.5C 249.333,396.833 249.333,390.167 250,383.5C 250.717,382.956 251.217,382.289 251.5,381.5 Z"/></g>
<g><path style="opacity:1" fill="#0f2d50" d="M 308.5,397.5 C 313.328,396.84 315.161,398.84 314,403.5C 310.622,408.422 307.122,413.255 303.5,418C 298.545,419.376 296.379,417.542 297,412.5C 300.666,407.339 304.499,402.339 308.5,397.5 Z"/></g>
<g><path style="opacity:1" fill="#f6f8f7" d="M 315.5,511.5 C 315.5,510.833 315.5,510.167 315.5,509.5C 315.415,501.668 312.415,495.335 306.5,490.5C 309.767,476.108 305.1,464.942 292.5,457C 288.747,455.011 284.747,454.178 280.5,454.5C 280.167,454.5 279.833,454.5 279.5,454.5C 274.948,443.056 266.615,438.723 254.5,441.5C 254.5,443.833 254.5,446.167 254.5,448.5C 255.414,451.728 255.747,455.061 255.5,458.5C 255.5,460.167 255.5,461.833 255.5,463.5C 252.749,478.999 245.749,492.332 234.5,503.5C 233.5,503.833 232.833,504.5 232.5,505.5C 229.331,506.917 226.331,508.583 223.5,510.5C 221.973,510.427 220.973,511.094 220.5,512.5C 218.035,512.767 215.701,513.434 213.5,514.5C 212.209,514.263 211.209,514.596 210.5,515.5C 205.893,516.554 201.227,517.221 196.5,517.5C 195.763,515.695 194.763,514.029 193.5,512.5C 193.709,511.914 194.043,511.414 194.5,511C 198.871,510.828 203.204,510.328 207.5,509.5C 204.914,508.52 202.247,508.187 199.5,508.5C 207.814,506.444 215.814,503.278 223.5,499C 228.71,495.291 233.043,490.791 236.5,485.5C 248.638,467.432 249.638,448.598 239.5,429C 272.271,422.964 297.104,434.464 314,463.5C 320.737,479.429 321.237,495.429 315.5,511.5 Z"/></g>
<g><path style="opacity:1" fill="#0b2d57" d="M 238.5,447.5 C 237.231,441.94 235.065,436.607 232,431.5C 229.2,430.557 226.366,430.724 223.5,432C 211.477,436.688 202.644,444.855 197,456.5C 195.89,458.037 194.39,458.703 192.5,458.5C 193.909,447.018 199.409,438.018 209,431.5C 214.155,428.006 219.655,425.172 225.5,423C 223.959,421.629 222.625,420.129 221.5,418.5C 223.331,417.948 224.997,417.948 226.5,418.5C 227.314,420.766 227.814,423.1 228,425.5C 229.011,426.337 230.178,426.67 231.5,426.5C 231.5,424.833 231.5,423.167 231.5,421.5C 234.323,421.025 236.323,422.025 237.5,424.5C 235.673,426.487 234.673,428.821 234.5,431.5C 235.5,431.5 236.5,431.5 237.5,431.5C 237.741,434.897 238.407,438.231 239.5,441.5C 239.328,443.548 238.995,445.548 238.5,447.5 Z"/></g>
<g><path style="opacity:1" fill="#102b4d" d="M 347.5,440.5 C 353.293,441.421 354.626,444.255 351.5,449C 345.667,451.167 339.833,453.333 334,455.5C 329.523,453.049 329.356,450.215 333.5,447C 338.377,445.058 343.044,442.892 347.5,440.5 Z"/></g>
<g><path style="opacity:1" fill="#188fdf" d="M 215.5,414.5 C 217.205,416.192 219.205,417.525 221.5,418.5C 222.625,420.129 223.959,421.629 225.5,423C 219.655,425.172 214.155,428.006 209,431.5C 199.409,438.018 193.909,447.018 192.5,458.5C 194.39,458.703 195.89,458.037 197,456.5C 202.644,444.855 211.477,436.688 223.5,432C 226.366,430.724 229.2,430.557 232,431.5C 235.065,436.607 237.231,441.94 238.5,447.5C 240.361,476.348 227.361,493.848 199.5,500C 193.151,500.275 186.818,500.275 180.5,500C 175.404,504.964 169.57,508.798 163,511.5C 163.306,509.177 163.972,506.844 165,504.5C 165.667,500.167 165.667,495.833 165,491.5C 145.835,474.843 141.169,454.843 151,431.5C 167.651,408.02 189.151,402.353 215.5,414.5 Z"/></g>
<g><path style="opacity:1" fill="#0e2d52" d="M 213.5,405.5 C 212.766,406.708 212.433,408.041 212.5,409.5C 219.936,408.777 220.936,410.444 215.5,414.5C 189.151,402.353 167.651,408.02 151,431.5C 141.169,454.843 145.835,474.843 165,491.5C 165.667,495.833 165.667,500.167 165,504.5C 163.972,506.844 163.306,509.177 163,511.5C 169.57,508.798 175.404,504.964 180.5,500C 186.818,500.275 193.151,500.275 199.5,500C 227.361,493.848 240.361,476.348 238.5,447.5C 239.167,452.681 239.833,458.015 240.5,463.5C 241.495,458.208 241.828,452.875 241.5,447.5C 242.5,447.5 243.5,447.5 244.5,447.5C 244.788,454.563 244.288,461.563 243,468.5C 242.047,470.592 240.714,470.925 239,469.5C 237.662,473.524 235.828,477.358 233.5,481C 234.555,482.507 235.555,484.007 236.5,485.5C 233.043,490.791 228.71,495.291 223.5,499C 215.814,503.278 207.814,506.444 199.5,508.5C 193.799,508.384 188.132,508.218 182.5,508C 173.553,516.349 163.053,520.516 151,520.5C 150.333,518.833 150.333,517.167 151,515.5C 155.64,509.57 157.974,502.904 158,495.5C 142.172,481.809 135.839,464.475 139,443.5C 145.857,416.141 163.357,401.808 191.5,400.5C 199.361,400.402 206.694,402.069 213.5,405.5 Z"/></g>
<g><path style="opacity:1" fill="#0b335b" d="M 212.5,448.5 C 220.486,447.998 222.486,451.165 218.5,458C 209.91,458.612 207.91,455.445 212.5,448.5 Z"/></g>
<g><path style="opacity:1" fill="#08315f" d="M 169.5,447.5 C 175.356,447.854 177.523,450.854 176,456.5C 172.255,460.566 168.922,460.233 166,455.5C 165.333,454.167 165.333,452.833 166,451.5C 167.376,450.295 168.542,448.962 169.5,447.5 Z"/></g>
<g><path style="opacity:1" fill="#5d7896" d="M 686.5,461.5 C 691.975,460.511 697.642,460.178 703.5,460.5C 703.5,468.5 703.5,476.5 703.5,484.5C 702.508,477.018 702.175,469.352 702.5,461.5C 697.167,461.5 691.833,461.5 686.5,461.5 Z"/></g>
<g><path style="opacity:1" fill="#546779" d="M 703.5,484.5 C 712.833,484.5 722.167,484.5 731.5,484.5C 731.822,490.358 731.489,496.025 730.5,501.5C 730.5,496.167 730.5,490.833 730.5,485.5C 721.318,485.827 712.318,485.493 703.5,484.5 Z"/></g>
<g><path style="opacity:1" fill="#8292a3" d="M 685.5,484.5 C 680.695,485.487 675.695,485.821 670.5,485.5C 670.5,490.833 670.5,496.167 670.5,501.5C 669.511,496.025 669.178,490.358 669.5,484.5C 674.833,484.5 680.167,484.5 685.5,484.5 Z"/></g>
<g><path style="opacity:1" fill="#0e2d4e" d="M 744.5,484.5 C 750.167,484.5 755.833,484.5 761.5,484.5C 761.34,486.199 761.506,487.866 762,489.5C 764.97,487.599 768.136,486.099 771.5,485C 780.16,484.5 788.827,484.334 797.5,484.5C 797.5,490.167 797.5,495.833 797.5,501.5C 788.827,501.334 780.16,501.5 771.5,502C 768.098,503.4 765.264,505.567 763,508.5C 761.522,529.742 761.022,551.075 761.5,572.5C 755.833,572.5 750.167,572.5 744.5,572.5C 744.5,543.167 744.5,513.833 744.5,484.5 Z"/></g>
<g><path style="opacity:1" fill="#0c2c4e" d="M 686.5,461.5 C 691.833,461.5 697.167,461.5 702.5,461.5C 702.175,469.352 702.508,477.018 703.5,484.5C 712.318,485.493 721.318,485.827 730.5,485.5C 730.5,490.833 730.5,496.167 730.5,501.5C 721.5,501.5 712.5,501.5 703.5,501.5C 703.03,517.596 703.53,533.596 705,549.5C 706.873,551.709 709.04,553.542 711.5,555C 718.158,555.5 724.825,555.666 731.5,555.5C 731.5,561.167 731.5,566.833 731.5,572.5C 724.825,572.666 718.158,572.5 711.5,572C 696.947,569.078 688.614,560.244 686.5,545.5C 686.5,530.833 686.5,516.167 686.5,501.5C 681.167,501.5 675.833,501.5 670.5,501.5C 670.5,496.167 670.5,490.833 670.5,485.5C 675.695,485.821 680.695,485.487 685.5,484.5C 686.492,477.018 686.825,469.352 686.5,461.5 Z"/></g>
<g><path style="opacity:1" fill="#acbccd" d="M 670.5,501.5 C 675.833,501.5 681.167,501.5 686.5,501.5C 686.5,516.167 686.5,530.833 686.5,545.5C 685.504,531.343 685.171,517.01 685.5,502.5C 680.305,502.821 675.305,502.487 670.5,501.5 Z"/></g>
<g><path style="opacity:1" fill="#0a2b4e" d="M 452.5,570.5 C 455.038,568.549 458.371,566.882 462.5,565.5C 463.23,564.066 464.23,562.9 465.5,562C 465.07,561.08 464.736,560.247 464.5,559.5C 461.54,561.902 458.206,563.069 454.5,563C 455.328,562.085 456.328,561.419 457.5,561C 456.833,560.667 456.167,560.333 455.5,560C 457.473,559.505 459.473,559.338 461.5,559.5C 462.946,556.662 463.446,553.662 463,550.5C 461.242,551.469 460.742,552.636 461.5,554C 459.888,554.72 458.388,554.554 457,553.5C 454.656,555.774 451.822,556.941 448.5,557C 437.121,557.188 425.787,557.688 414.5,558.5C 413.377,557.456 412.044,556.79 410.5,556.5C 408.177,557.376 405.843,557.876 403.5,558C 400.033,556.308 398.7,553.475 399.5,549.5C 400.991,542.237 401.658,534.903 401.5,527.5C 400.167,527.5 398.833,527.5 397.5,527.5C 397.5,538.167 397.5,548.833 397.5,559.5C 396.167,559.5 394.833,559.5 393.5,559.5C 393.832,548.813 393.499,538.146 392.5,527.5C 391.407,542.011 391.407,556.345 392.5,570.5C 412.007,570.17 431.341,570.503 450.5,571.5C 430.534,572.464 410.534,572.798 390.5,572.5C 390.5,531.833 390.5,491.167 390.5,450.5C 410.169,450.333 429.836,450.5 449.5,451C 472.037,458.906 480.203,474.406 474,497.5C 472.46,501.419 470.293,504.919 467.5,508C 483.655,522.585 485.822,539.085 474,557.5C 468.446,564.526 461.279,568.859 452.5,570.5 Z"/></g>
<g><path style="opacity:1" fill="#fafbfb" d="M 443.5,467.5 C 456.408,470.286 461.575,478.286 459,491.5C 456.768,496.731 452.935,500.231 447.5,502C 434.171,502.5 420.837,502.667 407.5,502.5C 407.5,490.833 407.5,479.167 407.5,467.5C 419.5,467.5 431.5,467.5 443.5,467.5 Z"/></g>
<g><path style="opacity:1" fill="#596d80" d="M 443.5,467.5 C 431.5,467.5 419.5,467.5 407.5,467.5C 407.5,479.167 407.5,490.833 407.5,502.5C 406.505,490.678 406.172,478.678 406.5,466.5C 419.011,466.171 431.345,466.505 443.5,467.5 Z"/></g>
<g><path style="opacity:1" fill="#0c2b4d" d="M 837.5,483.5 C 864.134,482.06 881.301,494.06 889,519.5C 891.957,546.178 880.79,563.678 855.5,572C 829.218,576.038 811.718,565.538 803,540.5C 798.256,511.456 809.756,492.456 837.5,483.5 Z"/></g>
<g><path style="opacity:1" fill="#fafbfb" d="M 838.5,500.5 C 862.843,499.675 874.01,511.342 872,535.5C 866.524,551.333 855.357,558.166 838.5,556C 821.941,549.389 815.441,537.222 819,519.5C 822.773,510.225 829.273,503.891 838.5,500.5 Z"/></g>
<g><path style="opacity:1" fill="#0e2d4e" d="M 507.5,535.5 C 526.76,534.661 546.76,534.161 567.5,534C 570.167,533.667 572.833,533.333 575.5,533C 559.485,532.666 543.485,532 527.5,531C 527.833,530.667 528.167,530.333 528.5,530C 536.333,529.833 544.167,529.667 552,529.5C 560.234,529.517 568.234,530.183 576,531.5C 576.49,530.207 576.657,528.873 576.5,527.5C 568.763,527.688 561.096,527.021 553.5,525.5C 550.711,525.741 548.044,526.408 545.5,527.5C 534.179,526.209 522.846,526.209 511.5,527.5C 507.126,528.002 504.459,530.336 503.5,534.5C 502.808,533.975 502.308,533.308 502,532.5C 500.536,536.367 499.369,536.2 498.5,532C 498.645,530.774 498.978,529.607 499.5,528.5C 502.167,527.5 504.833,526.5 507.5,525.5C 506.68,523.889 505.346,523.222 503.5,523.5C 503.854,521.459 503.854,519.626 503.5,518C 505.915,516.535 506.915,514.368 506.5,511.5C 508.167,511.5 509.833,511.5 511.5,511.5C 510.816,509.551 509.649,507.885 508,506.5C 507.505,504.527 507.338,502.527 507.5,500.5C 506.5,500.5 505.5,500.5 504.5,500.5C 504.649,501.552 504.483,502.552 504,503.5C 494.55,508.309 491.383,515.975 494.5,526.5C 492.331,530.29 491.998,534.29 493.5,538.5C 494.086,538.291 494.586,537.957 495,537.5C 496.702,541.66 497.702,545.993 498,550.5C 499.743,552.321 501.243,554.321 502.5,556.5C 503.086,556.291 503.586,555.957 504,555.5C 504.481,560.168 506.981,562.835 511.5,563.5C 511.5,564.5 511.5,565.5 511.5,566.5C 497.117,557.915 490.117,545.082 490.5,528C 491.596,503.902 503.93,489.236 527.5,484C 554.933,482.462 572.1,494.962 579,521.5C 579.499,526.155 579.666,530.821 579.5,535.5C 555.5,535.5 531.5,535.5 507.5,535.5 Z"/></g>
<g><path style="opacity:1" fill="#f5f8f9" d="M 511.5,511.5 C 524.172,498.552 538.172,497.052 553.5,507C 556.923,510.238 559.257,514.071 560.5,518.5C 543.154,518.833 525.821,518.5 508.5,517.5C 509.513,515.473 510.513,513.473 511.5,511.5 Z"/></g>
<g><path style="opacity:1" fill="#0d2a55" d="M 232.5,505.5 C 232.5,507.5 232.5,509.5 232.5,511.5C 229.884,512.944 227.051,513.944 224,514.5C 222.174,513.99 222.007,513.156 223.5,512C 231.473,511.174 231.473,510.674 223.5,510.5C 226.331,508.583 229.331,506.917 232.5,505.5 Z"/></g>
<g><path style="opacity:1" fill="#262638" d="M 223.5,510.5 C 231.473,510.674 231.473,511.174 223.5,512C 222.007,513.156 222.174,513.99 224,514.5C 227.051,513.944 229.884,512.944 232.5,511.5C 232.586,512.496 232.252,513.329 231.5,514C 229.412,515.03 227.245,515.863 225,516.5C 222.695,516.027 221.195,514.693 220.5,512.5C 220.973,511.094 221.973,510.427 223.5,510.5 Z"/></g>
<g><path style="opacity:1" fill="#9d7772" d="M 210.5,515.5 C 211.209,514.596 212.209,514.263 213.5,514.5C 213.802,517.059 213.468,519.393 212.5,521.5C 212.975,518.918 212.308,516.918 210.5,515.5 Z"/></g>
<g><path style="opacity:1" fill="#0b2b4c" d="M 579.5,485.5 C 586.321,484.345 593.321,484.179 600.5,485C 607.674,494.335 615.007,503.502 622.5,512.5C 629.993,503.502 637.326,494.335 644.5,485C 651.192,484.169 657.858,484.336 664.5,485.5C 653.796,499.083 643.463,512.916 633.5,527C 644.293,541.963 655.293,556.797 666.5,571.5C 659.5,572.833 652.5,572.833 645.5,571.5C 637.857,561.357 630.024,551.357 622,541.5C 614.549,551.952 606.716,562.119 598.5,572C 591.808,572.831 585.142,572.664 578.5,571.5C 589.5,556.833 600.5,542.167 611.5,527.5C 601.162,513.173 590.495,499.173 579.5,485.5 Z"/></g>
<g><path style="opacity:1" fill="#7e4236" d="M 246.5,503.5 C 247.659,513.992 247.825,524.659 247,535.5C 246.722,536.416 246.222,537.082 245.5,537.5C 246.434,526.205 246.768,514.871 246.5,503.5 Z"/></g>
<g><path style="opacity:1" fill="#fafbfb" d="M 407.5,519.5 C 422.504,519.333 437.504,519.5 452.5,520C 464.12,525.179 467.286,533.679 462,545.5C 458.245,550.295 453.412,553.462 447.5,555C 434.171,555.5 420.837,555.667 407.5,555.5C 407.5,543.5 407.5,531.5 407.5,519.5 Z"/></g>
<g><path style="opacity:1" fill="#092a4f" d="M 511.5,511.5 C 509.833,511.5 508.167,511.5 506.5,511.5C 506.915,514.368 505.915,516.535 503.5,518C 503.854,519.626 503.854,521.459 503.5,523.5C 505.346,523.222 506.68,523.889 507.5,525.5C 504.833,526.5 502.167,527.5 499.5,528.5C 498.978,529.607 498.645,530.774 498.5,532C 499.369,536.2 500.536,536.367 502,532.5C 502.308,533.308 502.808,533.975 503.5,534.5C 504.459,530.336 507.126,528.002 511.5,527.5C 522.846,526.209 534.179,526.209 545.5,527.5C 548.044,526.408 550.711,525.741 553.5,525.5C 561.096,527.021 568.763,527.688 576.5,527.5C 576.657,528.873 576.49,530.207 576,531.5C 568.234,530.183 560.234,529.517 552,529.5C 544.167,529.667 536.333,529.833 528.5,530C 528.167,530.333 527.833,530.667 527.5,531C 543.485,532 559.485,532.666 575.5,533C 572.833,533.333 570.167,533.667 567.5,534C 546.76,534.161 526.76,534.661 507.5,535.5C 512.943,551.085 523.943,557.918 540.5,556C 546.741,554.548 552.075,551.548 556.5,547C 563.192,546.169 569.858,546.336 576.5,547.5C 565.158,566.338 548.492,574.838 526.5,573C 520.968,571.897 515.968,569.73 511.5,566.5C 511.5,565.5 511.5,564.5 511.5,563.5C 506.981,562.835 504.481,560.168 504,555.5C 503.586,555.957 503.086,556.291 502.5,556.5C 501.243,554.321 499.743,552.321 498,550.5C 497.702,545.993 496.702,541.66 495,537.5C 494.586,537.957 494.086,538.291 493.5,538.5C 491.998,534.29 492.331,530.29 494.5,526.5C 491.383,515.975 494.55,508.309 504,503.5C 504.483,502.552 504.649,501.552 504.5,500.5C 505.5,500.5 506.5,500.5 507.5,500.5C 507.338,502.527 507.505,504.527 508,506.5C 509.649,507.885 510.816,509.551 511.5,511.5 Z"/></g>
<g><path style="opacity:1" fill="#ec6e3d" d="M 234.5,503.5 C 238.5,503.5 242.5,503.5 246.5,503.5C 246.768,514.871 246.434,526.205 245.5,537.5C 240.941,546.794 233.941,548.961 224.5,544C 221.46,533.419 225.46,528.086 236.5,528C 238.032,525.67 237.698,523.67 235.5,522C 220.295,521.712 213.629,529.212 215.5,544.5C 214.5,544.5 213.5,544.5 212.5,544.5C 209.167,544.167 205.833,543.833 202.5,543.5C 197.677,541.885 194.677,538.551 193.5,533.5C 193.5,531.167 193.5,528.833 193.5,526.5C 195.26,520.975 198.927,519.142 204.5,521C 207.226,523.879 209.893,524.045 212.5,521.5C 213.468,519.393 213.802,517.059 213.5,514.5C 215.701,513.434 218.035,512.767 220.5,512.5C 221.195,514.693 222.695,516.027 225,516.5C 227.245,515.863 229.412,515.03 231.5,514C 232.252,513.329 232.586,512.496 232.5,511.5C 232.5,509.5 232.5,507.5 232.5,505.5C 232.833,504.5 233.5,503.833 234.5,503.5 Z"/></g>
<g><path style="opacity:1" fill="#152e4e" d="M 213.5,405.5 C 221.346,408.601 228.012,413.434 233.5,420C 256.761,416.045 278.427,420.379 298.5,433C 324.831,454.786 333.331,482.286 324,515.5C 320.143,524.306 316.81,533.306 314,542.5C 305.33,552.034 294.83,554.701 282.5,550.5C 270.324,556.163 259.657,554.163 250.5,544.5C 241.757,555.243 231.257,557.243 219,550.5C 207.344,554.962 197.344,552.629 189,543.5C 185.425,537.086 184.759,530.419 187,523.5C 189.843,520.837 193.009,518.837 196.5,517.5C 201.227,517.221 205.893,516.554 210.5,515.5C 212.308,516.918 212.975,518.918 212.5,521.5C 209.893,524.045 207.226,523.879 204.5,521C 198.927,519.142 195.26,520.975 193.5,526.5C 192.761,526.369 192.094,526.536 191.5,527C 192.117,529.277 192.784,531.444 193.5,533.5C 194.677,538.551 197.677,541.885 202.5,543.5C 205.708,545.531 209.041,545.865 212.5,544.5C 213.5,544.5 214.5,544.5 215.5,544.5C 213.629,529.212 220.295,521.712 235.5,522C 237.698,523.67 238.032,525.67 236.5,528C 225.46,528.086 221.46,533.419 224.5,544C 233.941,548.961 240.941,546.794 245.5,537.5C 246.222,537.082 246.722,536.416 247,535.5C 247.825,524.659 247.659,513.992 246.5,503.5C 242.5,503.5 238.5,503.5 234.5,503.5C 245.749,492.332 252.749,478.999 255.5,463.5C 255.5,487.167 255.5,510.833 255.5,534.5C 255.025,537.313 256.025,539.313 258.5,540.5C 259.74,542.988 261.74,544.821 264.5,546C 267.833,546.667 271.167,546.667 274.5,546C 275.942,545.623 276.942,544.79 277.5,543.5C 281.526,537.983 280.526,533.15 274.5,529C 271.274,527.801 267.941,527.301 264.5,527.5C 264.5,525.833 264.5,524.167 264.5,522.5C 264.833,522.5 265.167,522.5 265.5,522.5C 270.238,521.173 274.905,521.507 279.5,523.5C 286.538,528.265 289.205,534.931 287.5,543.5C 289.117,544.972 291.117,545.639 293.5,545.5C 295.045,545.489 296.378,545.156 297.5,544.5C 299.435,543.85 301.435,543.517 303.5,543.5C 305.757,540.221 308.09,536.888 310.5,533.5C 311.675,533.719 312.675,533.386 313.5,532.5C 312.212,529.966 312.212,527.466 313.5,525C 312.552,524.517 311.552,524.351 310.5,524.5C 310.264,522.027 308.931,520.36 306.5,519.5C 306.808,518.692 307.308,518.025 308,517.5C 309.554,520.102 311.72,521.269 314.5,521C 315.982,517.243 315.316,516.743 312.5,519.5C 311.614,518.675 311.281,517.675 311.5,516.5C 314.297,516.033 315.631,514.367 315.5,511.5C 321.237,495.429 320.737,479.429 314,463.5C 297.104,434.464 272.271,422.964 239.5,429C 249.638,448.598 248.638,467.432 236.5,485.5C 235.555,484.007 234.555,482.507 233.5,481C 235.828,477.358 237.662,473.524 239,469.5C 240.714,470.925 242.047,470.592 243,468.5C 244.288,461.563 244.788,454.563 244.5,447.5C 243.5,447.5 242.5,447.5 241.5,447.5C 241.828,452.875 241.495,458.208 240.5,463.5C 239.833,458.015 239.167,452.681 238.5,447.5C 238.995,445.548 239.328,443.548 239.5,441.5C 238.407,438.231 237.741,434.897 237.5,431.5C 236.5,431.5 235.5,431.5 234.5,431.5C 234.673,428.821 235.673,426.487 237.5,424.5C 236.323,422.025 234.323,421.025 231.5,421.5C 231.5,423.167 231.5,424.833 231.5,426.5C 230.178,426.67 229.011,426.337 228,425.5C 227.814,423.1 227.314,420.766 226.5,418.5C 224.997,417.948 223.331,417.948 221.5,418.5C 219.205,417.525 217.205,416.192 215.5,414.5C 220.936,410.444 219.936,408.777 212.5,409.5C 212.433,408.041 212.766,406.708 213.5,405.5 Z"/></g>
<g><path style="opacity:1" fill="#915d50" d="M 287.5,543.5 C 290.807,544.051 294.14,544.384 297.5,544.5C 296.378,545.156 295.045,545.489 293.5,545.5C 291.117,545.639 289.117,544.972 287.5,543.5 Z"/></g>
<g><path style="opacity:1" fill="#945f54" d="M 202.5,543.5 C 205.833,543.833 209.167,544.167 212.5,544.5C 209.041,545.865 205.708,545.531 202.5,543.5 Z"/></g>
<g><path style="opacity:1" fill="#ee6e3e" d="M 264.5,522.5 C 264.5,524.167 264.5,525.833 264.5,527.5C 267.941,527.301 271.274,527.801 274.5,529C 280.526,533.15 281.526,537.983 277.5,543.5C 273.22,544.54 268.887,544.706 264.5,544C 265.308,543.692 265.975,543.192 266.5,542.5C 264.704,541.859 263.204,540.859 262,539.5C 260.989,540.337 259.822,540.67 258.5,540.5C 256.025,539.313 255.025,537.313 255.5,534.5C 256.721,533.972 257.887,533.305 259,532.5C 262.466,534.35 264.299,533.35 264.5,529.5C 262.5,529.5 260.5,529.5 258.5,529.5C 257.631,524.703 259.631,522.369 264.5,522.5 Z"/></g>
<g><path style="opacity:1" fill="#d8724e" d="M 277.5,543.5 C 276.942,544.79 275.942,545.623 274.5,546C 271.167,546.667 267.833,546.667 264.5,546C 261.74,544.821 259.74,542.988 258.5,540.5C 259.822,540.67 260.989,540.337 262,539.5C 263.204,540.859 264.704,541.859 266.5,542.5C 265.975,543.192 265.308,543.692 264.5,544C 268.887,544.706 273.22,544.54 277.5,543.5 Z"/></g>
<g><path style="opacity:1" fill="#815d58" d="M 193.5,526.5 C 193.5,528.833 193.5,531.167 193.5,533.5C 192.784,531.444 192.117,529.277 191.5,527C 192.094,526.536 192.761,526.369 193.5,526.5 Z"/></g>
<g><path style="opacity:1" fill="#24253d" d="M 304.5,513.5 C 307.346,513.552 309.68,514.552 311.5,516.5C 311.281,517.675 311.614,518.675 312.5,519.5C 315.316,516.743 315.982,517.243 314.5,521C 311.72,521.269 309.554,520.102 308,517.5C 307.308,518.025 306.808,518.692 306.5,519.5C 308.931,520.36 310.264,522.027 310.5,524.5C 311.552,524.351 312.552,524.517 313.5,525C 312.212,527.466 312.212,529.966 313.5,532.5C 312.675,533.386 311.675,533.719 310.5,533.5C 312.206,526.859 309.872,522.192 303.5,519.5C 306.805,517.933 307.138,515.933 304.5,513.5 Z"/></g>
<g><path style="opacity:1" fill="#132852" d="M 304.5,513.5 C 307.138,515.933 306.805,517.933 303.5,519.5C 299.113,518.895 295.446,520.229 292.5,523.5C 288.416,520.135 288.749,517.135 293.5,514.5C 297.064,513.577 300.731,513.244 304.5,513.5 Z"/></g>
<g><path style="opacity:1" fill="#302f4e" d="M 306.5,490.5 C 312.415,495.335 315.415,501.668 315.5,509.5C 314.113,507.123 313.279,504.457 313,501.5C 310.088,498.218 306.588,497.551 302.5,499.5C 296.655,498.721 295.988,496.388 300.5,492.5C 302.304,491.232 304.304,490.565 306.5,490.5 Z"/></g>
<g><path style="opacity:1" fill="#f06d38" d="M 280.5,454.5 C 284.747,454.178 288.747,455.011 292.5,457C 305.1,464.942 309.767,476.108 306.5,490.5C 304.304,490.565 302.304,491.232 300.5,492.5C 295.988,496.388 296.655,498.721 302.5,499.5C 306.588,497.551 310.088,498.218 313,501.5C 313.279,504.457 314.113,507.123 315.5,509.5C 315.5,510.167 315.5,510.833 315.5,511.5C 315.631,514.367 314.297,516.033 311.5,516.5C 309.68,514.552 307.346,513.552 304.5,513.5C 302.866,512.839 301.033,512.506 299,512.5C 296.705,512.547 294.871,513.213 293.5,514.5C 288.749,517.135 288.416,520.135 292.5,523.5C 295.446,520.229 299.113,518.895 303.5,519.5C 309.872,522.192 312.206,526.859 310.5,533.5C 308.09,536.888 305.757,540.221 303.5,543.5C 301.435,543.517 299.435,543.85 297.5,544.5C 294.14,544.384 290.807,544.051 287.5,543.5C 289.205,534.931 286.538,528.265 279.5,523.5C 277.089,521.14 274.089,520.14 270.5,520.5C 268.36,520.556 266.694,521.223 265.5,522.5C 265.167,522.5 264.833,522.5 264.5,522.5C 259.631,522.369 257.631,524.703 258.5,529.5C 260.5,529.5 262.5,529.5 264.5,529.5C 264.299,533.35 262.466,534.35 259,532.5C 257.887,533.305 256.721,533.972 255.5,534.5C 255.5,510.833 255.5,487.167 255.5,463.5C 255.5,461.833 255.5,460.167 255.5,458.5C 260.689,458.43 266.022,458.096 271.5,457.5C 271.5,458.5 271.5,459.5 271.5,460.5C 267.19,461.08 262.857,461.414 258.5,461.5C 258.526,464.951 260.026,467.618 263,469.5C 263.49,470.793 263.657,472.127 263.5,473.5C 262.5,473.5 261.5,473.5 260.5,473.5C 260.5,474.833 260.5,476.167 260.5,477.5C 263.909,477.249 267.242,477.583 270.5,478.5C 271.298,478.043 271.631,477.376 271.5,476.5C 274.642,472.861 278.476,470.194 283,468.5C 287.636,469.067 291.47,471.067 294.5,474.5C 294.524,480.404 293.524,486.071 291.5,491.5C 293.735,491.795 295.735,491.461 297.5,490.5C 299.669,488.66 301.002,486.326 301.5,483.5C 304.266,479.311 303.933,475.311 300.5,471.5C 298.1,468.097 295.1,465.43 291.5,463.5C 291.586,462.504 291.252,461.671 290.5,461C 287.183,460.502 283.85,460.335 280.5,460.5C 280.5,458.5 280.5,456.5 280.5,454.5 Z"/></g>
<g><path style="opacity:1" fill="#aa6750" d="M 279.5,523.5 C 274.905,521.507 270.238,521.173 265.5,522.5C 266.694,521.223 268.36,520.556 270.5,520.5C 274.089,520.14 277.089,521.14 279.5,523.5 Z"/></g>
<g><path style="opacity:1" fill="#5e3d3e" d="M 304.5,513.5 C 300.731,513.244 297.064,513.577 293.5,514.5C 294.871,513.213 296.705,512.547 299,512.5C 301.033,512.506 302.866,512.839 304.5,513.5 Z"/></g>
<g><path style="opacity:1" fill="#192a52" d="M 265.5,509.5 C 267.727,507.393 269.727,505.06 271.5,502.5C 271.211,498.894 271.544,495.394 272.5,492C 275.804,490.958 277.971,492.125 279,495.5C 280.804,504.181 277.637,510.181 269.5,513.5C 267.152,513.152 265.818,511.818 265.5,509.5 Z"/></g>
<g><path style="opacity:1" fill="#603a35" d="M 271.5,502.5 C 269.727,505.06 267.727,507.393 265.5,509.5C 266.348,506.112 268.348,503.779 271.5,502.5 Z"/></g>
<g><path style="opacity:1" fill="#132c54" d="M 301.5,483.5 C 301.002,486.326 299.669,488.66 297.5,490.5C 295.833,490.5 294.167,490.5 292.5,490.5C 292.659,487.845 293.659,485.512 295.5,483.5C 296.425,484.641 297.259,484.641 298,483.5C 298.624,481.536 298.124,479.869 296.5,478.5C 298.329,477.718 299.829,478.384 301,480.5C 301.483,481.448 301.649,482.448 301.5,483.5 Z"/></g>
<g><path style="opacity:1" fill="#2e2c3d" d="M 300.5,471.5 C 303.933,475.311 304.266,479.311 301.5,483.5C 301.649,482.448 301.483,481.448 301,480.5C 299.829,478.384 298.329,477.718 296.5,478.5C 298.124,479.869 298.624,481.536 298,483.5C 297.259,484.641 296.425,484.641 295.5,483.5C 293.659,485.512 292.659,487.845 292.5,490.5C 294.167,490.5 295.833,490.5 297.5,490.5C 295.735,491.461 293.735,491.795 291.5,491.5C 293.524,486.071 294.524,480.404 294.5,474.5C 296.5,474.833 298.5,475.167 300.5,475.5C 300.5,474.167 300.5,472.833 300.5,471.5 Z"/></g>
<g><path style="opacity:1" fill="#152a4f" d="M 279.5,454.5 C 279.198,457.059 279.532,459.393 280.5,461.5C 283.656,462.434 286.989,463.101 290.5,463.5C 290.833,463.5 291.167,463.5 291.5,463.5C 295.1,465.43 298.1,468.097 300.5,471.5C 300.5,472.833 300.5,474.167 300.5,475.5C 298.5,475.167 296.5,474.833 294.5,474.5C 291.47,471.067 287.636,469.067 283,468.5C 278.476,470.194 274.642,472.861 271.5,476.5C 268.476,476.825 266.809,475.492 266.5,472.5C 268.527,469.635 270.36,466.635 272,463.5C 272.548,451.221 266.714,446.221 254.5,448.5C 254.5,446.167 254.5,443.833 254.5,441.5C 266.615,438.723 274.948,443.056 279.5,454.5 Z"/></g>
<g><path style="opacity:1" fill="#73483e" d="M 280.5,461.5 C 283.518,461.335 286.518,461.502 289.5,462C 290.056,462.383 290.389,462.883 290.5,463.5C 286.989,463.101 283.656,462.434 280.5,461.5 Z"/></g>
<g><path style="opacity:1" fill="#cb6946" d="M 279.5,454.5 C 279.833,454.5 280.167,454.5 280.5,454.5C 280.5,456.5 280.5,458.5 280.5,460.5C 283.85,460.335 287.183,460.502 290.5,461C 291.252,461.671 291.586,462.504 291.5,463.5C 291.167,463.5 290.833,463.5 290.5,463.5C 290.389,462.883 290.056,462.383 289.5,462C 286.518,461.502 283.518,461.335 280.5,461.5C 279.532,459.393 279.198,457.059 279.5,454.5 Z"/></g>
<g><path style="opacity:1" fill="#ea7043" d="M 271.5,476.5 C 271.631,477.376 271.298,478.043 270.5,478.5C 267.242,477.583 263.909,477.249 260.5,477.5C 260.5,476.167 260.5,474.833 260.5,473.5C 261.5,473.5 262.5,473.5 263.5,473.5C 263.657,472.127 263.49,470.793 263,469.5C 260.026,467.618 258.526,464.951 258.5,461.5C 262.857,461.414 267.19,461.08 271.5,460.5C 271.5,459.5 271.5,458.5 271.5,457.5C 266.022,458.096 260.689,458.43 255.5,458.5C 255.747,455.061 255.414,451.728 254.5,448.5C 266.714,446.221 272.548,451.221 272,463.5C 270.36,466.635 268.527,469.635 266.5,472.5C 266.809,475.492 268.476,476.825 271.5,476.5 Z"/></g>
<g><path style="opacity:1" fill="#072a50" d="M 452.5,570.5 C 452.158,571.338 451.492,571.672 450.5,571.5C 431.341,570.503 412.007,570.17 392.5,570.5C 391.407,556.345 391.407,542.011 392.5,527.5C 393.499,538.146 393.832,548.813 393.5,559.5C 394.833,559.5 396.167,559.5 397.5,559.5C 397.5,548.833 397.5,538.167 397.5,527.5C 398.833,527.5 400.167,527.5 401.5,527.5C 401.658,534.903 400.991,542.237 399.5,549.5C 398.7,553.475 400.033,556.308 403.5,558C 405.843,557.876 408.177,557.376 410.5,556.5C 412.044,556.79 413.377,557.456 414.5,558.5C 425.787,557.688 437.121,557.188 448.5,557C 451.822,556.941 454.656,555.774 457,553.5C 458.388,554.554 459.888,554.72 461.5,554C 460.742,552.636 461.242,551.469 463,550.5C 463.446,553.662 462.946,556.662 461.5,559.5C 459.473,559.338 457.473,559.505 455.5,560C 456.167,560.333 456.833,560.667 457.5,561C 456.328,561.419 455.328,562.085 454.5,563C 458.206,563.069 461.54,561.902 464.5,559.5C 464.736,560.247 465.07,561.08 465.5,562C 464.23,562.9 463.23,564.066 462.5,565.5C 458.371,566.882 455.038,568.549 452.5,570.5 Z"/></g>
<g><path style="opacity:1" fill="#152f4a" d="M 271.5,574.5 C 255.6,573.836 239.6,572.503 223.5,570.5C 242.959,569.379 262.293,570.379 281.5,573.5C 281.5,571.833 281.5,570.167 281.5,568.5C 262.275,566.474 242.942,565.974 223.5,567C 218.315,568.074 217.648,570.074 221.5,573C 220.944,573.383 220.611,573.883 220.5,574.5C 216.887,572.176 216.553,569.343 219.5,566C 240.5,565.333 261.5,565.333 282.5,566C 286.065,568.178 286.399,570.844 283.5,574C 279.514,574.499 275.514,574.666 271.5,574.5 Z"/></g>
<g><path style="opacity:1" fill="#0c2952" d="M 271.5,574.5 C 254.5,574.5 237.5,574.5 220.5,574.5C 220.611,573.883 220.944,573.383 221.5,573C 217.648,570.074 218.315,568.074 223.5,567C 242.942,565.974 262.275,566.474 281.5,568.5C 281.5,570.167 281.5,571.833 281.5,573.5C 262.293,570.379 242.959,569.379 223.5,570.5C 239.6,572.503 255.6,573.836 271.5,574.5 Z"/></g>
<g><path style="opacity:1" fill="#06284e" d="M 283.5,586.5 C 284.167,586.5 284.5,586.833 284.5,587.5C 283.21,588.058 282.377,589.058 282,590.5C 280.165,589.74 278.165,589.406 276,589.5C 274.775,589.862 273.609,590.362 272.5,591C 275.833,591.333 279.167,591.667 282.5,592C 282.167,592.333 281.833,592.667 281.5,593C 262.158,593.833 242.825,593.666 223.5,592.5C 218.464,590.999 218.464,589.166 223.5,587C 243.497,586.5 263.497,586.333 283.5,586.5 Z"/></g>
<g><path style="opacity:1" fill="#132a43" d="M 283.5,586.5 C 263.497,586.333 243.497,586.5 223.5,587C 218.464,589.166 218.464,590.999 223.5,592.5C 242.825,593.666 262.158,593.833 281.5,593C 281.833,592.667 282.167,592.333 282.5,592C 279.167,591.667 275.833,591.333 272.5,591C 273.609,590.362 274.775,589.862 276,589.5C 278.165,589.406 280.165,589.74 282,590.5C 282.377,589.058 283.21,588.058 284.5,587.5C 285.819,589.605 285.486,591.605 283.5,593.5C 262.174,594.666 240.841,594.833 219.5,594C 216.966,591.253 216.966,588.587 219.5,586C 241.004,585.171 262.337,585.337 283.5,586.5 Z"/></g>
<g><path style="opacity:1" fill="#122d50" d="M 219.5,605.5 C 240.836,605.333 262.169,605.5 283.5,606C 286.1,608.459 286.1,610.959 283.5,613.5C 262.508,614.666 241.508,614.833 220.5,614C 216.986,611.468 216.653,608.635 219.5,605.5 Z"/></g>
<g><path style="opacity:1" fill="#8c9baa" d="M 231.5,625.5 C 244.99,624.504 258.656,624.171 272.5,624.5C 272.737,625.791 272.404,626.791 271.5,627.5C 258.542,625.519 245.209,624.852 231.5,625.5 Z"/></g>
<g><path style="opacity:1" fill="#0b2a4e" d="M 231.5,625.5 C 245.209,624.852 258.542,625.519 271.5,627.5C 268.166,636.843 261.5,641.843 251.5,642.5C 241.161,641.162 234.495,635.495 231.5,625.5 Z"/></g>
</svg>
