<svg width="139" height="56" viewBox="0 0 139 56" fill="none" xmlns="http://www.w3.org/2000/svg">
<path d="M59.4779 34.0562C59.9825 34.3979 60.4016 34.8455 60.7352 35.3989C61.0689 35.9523 61.2357 36.6237 61.2357 37.4131C61.2357 38.2188 61.0608 38.9186 60.7108 39.5127C60.3609 40.1068 59.9052 40.5951 59.3436 40.9775C58.7984 41.3519 58.1799 41.6367 57.4882 41.832C56.8046 42.0273 56.0966 42.125 55.3641 42.125H47.161V41.2583C47.3563 41.242 47.6412 41.2095 48.0155 41.1606C48.3899 41.1037 48.6584 41.0386 48.8212 40.9653C49.0734 40.8514 49.2525 40.7008 49.3583 40.5137C49.4641 40.3184 49.517 40.0701 49.517 39.769V27.3179C49.517 27.0412 49.4681 26.797 49.3705 26.5854C49.281 26.3739 49.0979 26.203 48.8212 26.0728C48.577 25.9507 48.3044 25.8571 48.0033 25.792C47.7022 25.7269 47.4499 25.6862 47.2465 25.6699V24.8032H55.2421C55.8606 24.8032 56.4506 24.8643 57.0121 24.9863C57.5817 25.1084 58.1229 25.3241 58.6356 25.6333C59.1158 25.9181 59.5105 26.3047 59.8197 26.793C60.1289 27.2812 60.2836 27.8753 60.2836 28.5752C60.2836 29.1855 60.1737 29.7308 59.954 30.2109C59.7343 30.6829 59.425 31.0898 59.0262 31.4316C58.6519 31.7572 58.2206 32.0339 57.7323 32.2617C57.2522 32.4814 56.7313 32.6523 56.1698 32.7744V32.8843C56.6662 32.9412 57.2196 33.0674 57.83 33.2627C58.4484 33.4499 58.9978 33.7144 59.4779 34.0562ZM56.536 31.4438C56.8371 31.0939 57.0446 30.7114 57.1586 30.2964C57.2806 29.8813 57.3417 29.389 57.3417 28.8193C57.3417 27.8672 57.0813 27.1226 56.5604 26.5854C56.0396 26.0402 55.2177 25.7676 54.0946 25.7676C53.8342 25.7676 53.5046 25.7757 53.1058 25.792C52.7152 25.8001 52.3856 25.8083 52.1171 25.8164V32.4692H53.6674C54.3347 32.4692 54.9043 32.3838 55.3763 32.2129C55.8565 32.042 56.243 31.7856 56.536 31.4438ZM58.2206 36.9736C58.2206 35.9482 57.8747 35.106 57.183 34.4468C56.4994 33.7876 55.5188 33.458 54.2411 33.458C53.7203 33.458 53.2808 33.4661 52.9227 33.4824C52.5647 33.4906 52.2961 33.4987 52.1171 33.5068V39.6104C52.1171 40.123 52.3246 40.5096 52.7396 40.77C53.1547 41.0304 53.7325 41.1606 54.473 41.1606C55.6856 41.1606 56.6133 40.8066 57.2562 40.0986C57.8991 39.3906 58.2206 38.349 58.2206 36.9736ZM76.681 39.293C76.1765 40.2533 75.501 41.0182 74.6547 41.5879C73.8083 42.1576 72.8358 42.4424 71.7372 42.4424C70.7688 42.4424 69.9183 42.2715 69.1859 41.9297C68.4616 41.5879 67.8635 41.124 67.3915 40.5381C66.9195 39.9521 66.5655 39.2686 66.3295 38.4873C66.1016 37.7061 65.9877 36.88 65.9877 36.0093C65.9877 35.228 66.1097 34.4631 66.3539 33.7144C66.6062 32.9575 66.9724 32.278 67.4525 31.6758C67.9164 31.098 68.4901 30.6341 69.1737 30.2842C69.8654 29.9261 70.6385 29.7471 71.493 29.7471C72.3719 29.7471 73.1247 29.8854 73.7513 30.1621C74.378 30.4388 74.8866 30.8172 75.2772 31.2974C75.6516 31.7531 75.9283 32.2902 76.1073 32.9087C76.2945 33.5272 76.3881 34.1986 76.3881 34.9229V35.7285H68.4169C68.4169 36.5179 68.4901 37.234 68.6366 37.877C68.7912 38.5199 69.0313 39.0854 69.3568 39.5737C69.6742 40.0457 70.0892 40.4201 70.6019 40.6968C71.1146 40.9653 71.725 41.0996 72.433 41.0996C73.1573 41.0996 73.7798 40.9328 74.3007 40.5991C74.8296 40.2573 75.3383 39.647 75.8265 38.7681L76.681 39.293ZM73.9833 34.7031C73.9833 34.2474 73.9426 33.7591 73.8612 33.2383C73.788 32.7174 73.6659 32.2821 73.495 31.9321C73.3078 31.5578 73.0515 31.2526 72.726 31.0166C72.4004 30.7806 71.9813 30.6626 71.4686 30.6626C70.6141 30.6626 69.9021 31.0207 69.3324 31.7368C68.7709 32.4448 68.4657 33.4336 68.4169 34.7031H73.9833ZM97.7294 42.125H89.6239V41.2583C90.2912 41.242 90.8283 41.181 91.2352 41.0752C91.6503 40.9613 91.8578 40.7904 91.8578 40.5625C91.8578 40.4404 91.7642 40.1882 91.577 39.8057C91.3899 39.4232 91.1498 38.9959 90.8568 38.5239C90.5313 38.0031 90.1447 37.3927 89.6971 36.6929C89.2496 35.9849 88.806 35.3094 88.3666 34.6665C87.6504 35.6105 86.8366 36.7498 85.9252 38.0845C85.0137 39.411 84.558 40.1922 84.558 40.4282C84.558 40.6968 84.6801 40.8962 84.9242 41.0264C85.1765 41.1484 85.7258 41.2257 86.5721 41.2583V42.125H80.1024V41.2583C80.314 41.242 80.5826 41.2135 80.9081 41.1729C81.2417 41.124 81.5144 41.0467 81.726 40.9409C82.1491 40.7131 82.4869 40.4689 82.7391 40.2085C82.9996 39.9399 83.26 39.6266 83.5204 39.2686C84.0412 38.5524 84.7085 37.6613 85.5223 36.5952C86.3361 35.521 87.0564 34.5444 87.683 33.6655C87.211 32.9738 86.6088 32.099 85.8763 31.041C85.1439 29.9749 84.3627 28.8356 83.5326 27.623C83.1827 27.1104 82.906 26.7482 82.7025 26.5366C82.5072 26.325 82.2427 26.1419 81.9091 25.9873C81.7137 25.8978 81.4411 25.8286 81.0912 25.7798C80.7494 25.7228 80.4768 25.6862 80.2733 25.6699V24.8032H88.2933V25.6699C87.8213 25.6862 87.329 25.7472 86.8163 25.853C86.3117 25.9507 86.0594 26.1053 86.0594 26.3169C86.0594 26.4715 86.1612 26.7441 86.3646 27.1348C86.5681 27.5173 86.8081 27.9282 87.0848 28.3677C87.3697 28.8234 87.6871 29.328 88.037 29.8813C88.3869 30.4347 88.8142 31.0736 89.3187 31.7979C90.2383 30.5527 91.0318 29.4297 91.6991 28.4287C92.3664 27.4277 92.7001 26.7767 92.7001 26.4756C92.7001 26.2152 92.5455 26.0239 92.2362 25.9019C91.9351 25.7798 91.4224 25.7025 90.6981 25.6699V24.8032H97.1556V25.6699C96.9522 25.6781 96.6836 25.7106 96.35 25.7676C96.0245 25.8164 95.7518 25.8896 95.5321 25.9873C95.1089 26.1908 94.7915 26.4105 94.58 26.6465C94.3765 26.8825 94.0998 27.2243 93.7499 27.6719C93.0988 28.5101 92.4966 29.2995 91.9432 30.04C91.398 30.7725 90.7388 31.6676 89.9657 32.7256C90.6167 33.6533 91.341 34.7072 92.1385 35.8872C92.9442 37.0672 93.7133 38.1943 94.4457 39.2686C94.698 39.6348 94.9869 39.9847 95.3124 40.3184C95.6379 40.6439 95.9024 40.8677 96.1058 40.9897C96.3011 41.1037 96.5616 41.1769 96.8871 41.2095C97.2207 41.2339 97.5015 41.2502 97.7294 41.2583V42.125ZM108.78 41.6001C108.251 41.8198 107.751 42.0029 107.279 42.1494C106.807 42.304 106.229 42.3813 105.545 42.3813C104.536 42.3813 103.824 42.1291 103.409 41.6245C103.002 41.1118 102.799 40.3916 102.799 39.4639V31.3096H100.626V30.1377H102.848V26.3901H105.069V30.1377H108.524V31.3096H105.094V38.0356C105.094 38.5402 105.11 38.9634 105.142 39.3052C105.183 39.6388 105.273 39.9318 105.411 40.1841C105.541 40.4201 105.737 40.5991 105.997 40.7212C106.257 40.8433 106.607 40.9043 107.047 40.9043C107.25 40.9043 107.547 40.888 107.938 40.8555C108.337 40.8148 108.617 40.766 108.78 40.709V41.6001ZM121.955 31.6392C121.955 32.0542 121.853 32.4245 121.65 32.75C121.446 33.0674 121.133 33.2261 120.71 33.2261C120.254 33.2261 119.904 33.1081 119.66 32.8721C119.424 32.6361 119.306 32.3757 119.306 32.0908C119.306 31.9118 119.318 31.749 119.343 31.6025C119.375 31.4561 119.404 31.3096 119.428 31.1631C119.046 31.1631 118.598 31.3177 118.085 31.627C117.573 31.9362 117.137 32.3757 116.779 32.9453V39.9521C116.779 40.237 116.832 40.4689 116.938 40.6479C117.052 40.827 117.227 40.9613 117.463 41.0508C117.666 41.1322 117.927 41.1932 118.244 41.2339C118.57 41.2746 118.85 41.3031 119.086 41.3193V42.125H112.739V41.3193C112.926 41.3031 113.117 41.2868 113.312 41.2705C113.516 41.2542 113.691 41.2217 113.837 41.1729C114.065 41.0996 114.232 40.9735 114.338 40.7944C114.452 40.6073 114.509 40.3672 114.509 40.0742V32.6401C114.509 32.3879 114.448 32.1396 114.326 31.8955C114.212 31.6514 114.049 31.4561 113.837 31.3096C113.683 31.2119 113.5 31.1427 113.288 31.1021C113.076 31.0532 112.849 31.0207 112.604 31.0044V30.2109L116.608 29.9424L116.779 30.1133V31.8101H116.84C117.345 31.1509 117.906 30.6504 118.525 30.3086C119.143 29.9668 119.709 29.7959 120.222 29.7959C120.734 29.7959 121.149 29.9627 121.467 30.2964C121.792 30.63 121.955 31.0776 121.955 31.6392ZM137.474 35.9849C137.474 36.8312 137.339 37.6654 137.071 38.4873C136.802 39.3011 136.42 39.9928 135.923 40.5625C135.362 41.2135 134.711 41.6978 133.97 42.0151C133.23 42.3325 132.399 42.4912 131.48 42.4912C130.715 42.4912 129.987 42.3488 129.295 42.064C128.603 41.771 127.989 41.3478 127.452 40.7944C126.923 40.2492 126.499 39.5859 126.182 38.8047C125.873 38.0153 125.718 37.1323 125.718 36.1558C125.718 34.2759 126.263 32.7378 127.354 31.5415C128.453 30.3452 129.889 29.7471 131.663 29.7471C133.348 29.7471 134.735 30.3167 135.826 31.4561C136.924 32.5872 137.474 34.0968 137.474 35.9849ZM134.947 36.0093C134.947 35.3989 134.886 34.756 134.764 34.0806C134.641 33.397 134.458 32.8192 134.214 32.3472C133.954 31.8426 133.612 31.4398 133.189 31.1387C132.766 30.8294 132.249 30.6748 131.639 30.6748C131.012 30.6748 130.475 30.8294 130.027 31.1387C129.588 31.4479 129.23 31.8711 128.953 32.4082C128.693 32.9046 128.509 33.4702 128.404 34.105C128.298 34.7397 128.245 35.3542 128.245 35.9482C128.245 36.7295 128.306 37.4538 128.428 38.1211C128.558 38.7803 128.762 39.3703 129.038 39.8911C129.315 40.4119 129.661 40.8229 130.076 41.124C130.499 41.417 131.02 41.5635 131.639 41.5635C132.656 41.5635 133.461 41.0711 134.056 40.0864C134.65 39.1017 134.947 37.7427 134.947 36.0093Z" fill="#142236"/>
<path fill-rule="evenodd" clip-rule="evenodd" d="M26.3546 0.523307C26.9464 0.439894 27.4505 0.58039 27.8667 0.944584C28.0219 2.34891 28.0219 3.75303 27.8667 5.15736C27.2463 5.71913 26.6261 5.71913 26.0057 5.15736C25.8505 3.75303 25.8505 2.34891 26.0057 0.944584C26.1725 0.829997 26.2888 0.689501 26.3546 0.523307Z" fill="#173254"/>
<path fill-rule="evenodd" clip-rule="evenodd" d="M39.6163 3.89355C40.7394 3.75452 41.1658 4.1758 40.8957 5.15738C40.1099 6.19414 39.2957 7.21216 38.4531 8.21164C37.3004 8.50148 36.7965 8.11517 36.941 7.05313C37.7938 5.96602 38.6855 4.91283 39.6163 3.89355Z" fill="#0F2D50"/>
<path fill-rule="evenodd" clip-rule="evenodd" d="M41.2433 27.9064C41.2433 27.7659 41.2433 27.6256 41.2433 27.4851C41.2235 25.8354 40.5256 24.5014 39.1496 23.4829C39.9096 20.4514 38.8239 18.0994 35.8928 16.4265C35.0197 16.0076 34.0892 15.8321 33.1012 15.8999C33.0237 15.8999 32.946 15.8999 32.8686 15.8999C31.8096 13.4894 29.8711 12.5767 27.0528 13.1616C27.0528 13.6531 27.0528 14.1447 27.0528 14.6361C27.2654 15.3161 27.3429 16.0181 27.2854 16.7425C27.2854 17.0936 27.2854 17.4446 27.2854 17.7957C26.6455 21.0604 25.017 23.8688 22.4002 26.2212C22.1675 26.2914 22.0124 26.4319 21.9349 26.6425C21.1977 26.941 20.4998 27.2919 19.8412 27.6957C19.486 27.6803 19.2534 27.8208 19.1433 28.117C18.5699 28.1732 18.0269 28.3137 17.5149 28.5383C17.2146 28.4883 16.982 28.5585 16.817 28.7489C15.7453 28.9709 14.6598 29.1114 13.5602 29.1702C13.3887 28.79 13.1561 28.4391 12.8623 28.117C12.9109 27.9936 12.9886 27.8882 13.0949 27.801C14.1118 27.7648 15.1198 27.6595 16.1191 27.4851C15.5176 27.2786 14.8971 27.2085 14.2581 27.2744C16.1922 26.8414 18.0532 26.1745 19.8412 25.2734C21.0532 24.4921 22.0612 23.5442 22.8654 22.4297C25.6891 18.6239 25.9217 14.6568 23.5633 10.5287C31.1869 9.25725 36.9638 11.6796 40.8943 17.7957C42.4616 21.151 42.5779 24.5212 41.2433 27.9064Z" fill="#F6F8F7"/>
<path fill-rule="evenodd" clip-rule="evenodd" d="M23.3326 14.4255C23.0374 13.2543 22.5335 12.131 21.8205 11.0552C21.1691 10.8566 20.5099 10.8918 19.8432 11.1606C17.0462 12.148 14.9914 13.8683 13.6784 16.3212C13.4202 16.645 13.0713 16.7852 12.6316 16.7425C12.9594 14.3239 14.2388 12.4282 16.47 11.0552C17.6692 10.3193 18.9487 9.72232 20.3084 9.26481C19.9499 8.97603 19.6396 8.66007 19.3779 8.31694C19.8038 8.20067 20.1914 8.20067 20.541 8.31694C20.7304 8.79425 20.8467 9.28588 20.89 9.79141C21.1252 9.96772 21.3967 10.0379 21.7042 10.0021C21.7042 9.65092 21.7042 9.29999 21.7042 8.94886C22.3609 8.8488 22.8262 9.05944 23.1 9.58077C22.675 9.99931 22.4423 10.4909 22.4021 11.0552C22.6347 11.0552 22.8674 11.0552 23.1 11.0552C23.156 11.7708 23.311 12.4731 23.5652 13.1616C23.5252 13.593 23.4478 14.0143 23.3326 14.4255Z" fill="#0B2D57"/>
<path fill-rule="evenodd" clip-rule="evenodd" d="M48.6882 12.9509C50.0358 13.1449 50.3459 13.7419 49.6187 14.7414C48.2618 15.1978 46.9046 15.6541 45.5477 16.1105C44.5062 15.5942 44.4673 14.9973 45.4314 14.3201C46.5659 13.911 47.6516 13.4548 48.6882 12.9509Z" fill="#102B4D"/>
<path fill-rule="evenodd" clip-rule="evenodd" d="M17.9806 7.47429C18.3772 7.83069 18.8425 8.11147 19.3764 8.31684C19.6381 8.65997 19.9484 8.97593 20.3069 9.26472C18.9472 9.72222 17.6677 10.3192 16.4685 11.0551C14.2373 12.4281 12.9579 14.3238 12.6301 16.7424C13.0698 16.7852 13.4187 16.6449 13.6769 16.3211C14.9899 13.8682 17.0447 12.1479 19.8416 11.1605C20.5084 10.8917 21.1676 10.8565 21.819 11.0551C22.532 12.1309 23.0359 13.2542 23.3311 14.4254C23.764 20.5019 20.7398 24.188 14.2585 25.4839C12.7815 25.5418 11.3083 25.5418 9.83852 25.4839C8.65303 26.5295 7.29586 27.3371 5.76747 27.9062C5.83866 27.4169 5.99359 26.9255 6.23274 26.4318C6.3879 25.5191 6.3879 24.6062 6.23274 23.6935C1.77436 20.1849 0.688909 15.9721 2.9759 11.0551C6.84944 6.10935 11.851 4.91566 17.9806 7.47429Z" fill="#188FDF"/>
<path fill-rule="evenodd" clip-rule="evenodd" d="M17.5146 5.57871C17.3439 5.83316 17.2664 6.11394 17.282 6.42127C19.0118 6.26897 19.2445 6.62011 17.9799 7.47446C11.8503 4.91583 6.84873 6.10952 2.97519 11.0553C0.688199 15.9723 1.77365 20.185 6.23203 23.6936C6.38719 24.6063 6.38719 25.5192 6.23203 26.4319C5.99288 26.9257 5.83795 27.4171 5.76677 27.9064C7.29515 27.3373 8.65232 26.5297 9.83781 25.4841C11.3076 25.542 12.7808 25.542 14.2578 25.4841C20.7391 24.1882 23.7633 20.502 23.3304 14.4255C23.4856 15.5169 23.6405 16.6404 23.7957 17.7958C24.0271 16.6811 24.1046 15.5577 24.0283 14.4255C24.2609 14.4255 24.4936 14.4255 24.7262 14.4255C24.7932 15.9133 24.6769 17.3877 24.3772 18.849C24.1555 19.2896 23.8454 19.3597 23.4467 19.0596C23.1355 19.9072 22.7088 20.7148 22.1672 21.4819C22.4127 21.7994 22.6453 22.1153 22.8651 22.4298C22.0609 23.5443 21.0529 24.4922 19.8409 25.2734C18.0529 26.1745 16.1919 26.8414 14.2578 27.2745C12.9316 27.2501 11.6132 27.2151 10.3031 27.1692C8.22172 28.9278 5.77909 29.8055 2.97519 29.8022C2.82003 29.451 2.82003 29.1001 2.97519 28.749C4.0546 27.4999 4.59756 26.0958 4.60361 24.5362C0.921528 21.6523 -0.551724 18.0011 0.183623 13.583C1.77877 7.82012 5.84981 4.80103 12.3967 4.52552C14.2255 4.50488 15.9313 4.85601 17.5146 5.57871Z" fill="#0E2D52"/>
<path fill-rule="evenodd" clip-rule="evenodd" d="M17.2845 14.6361C19.1423 14.5304 19.6075 15.1974 18.6803 16.6372C16.682 16.7661 16.2167 16.099 17.2845 14.6361Z" fill="#0B335B"/>
<path fill-rule="evenodd" clip-rule="evenodd" d="M7.28068 14.4255C8.64297 14.5001 9.14708 15.132 8.79278 16.3213C7.92158 17.1777 7.14622 17.1076 6.46647 16.1106C6.31131 15.8299 6.31131 15.5489 6.46647 15.2681C6.78657 15.0143 7.05782 14.7335 7.28068 14.4255Z" fill="#08315F"/>
<path fill-rule="evenodd" clip-rule="evenodd" d="M21.9359 26.6426C21.9359 27.0639 21.9359 27.4851 21.9359 27.9064C21.3273 28.2106 20.6683 28.4212 19.9585 28.5383C19.5337 28.4309 19.4949 28.2552 19.8422 28.0117C21.697 27.8377 21.697 27.7324 19.8422 27.6958C20.5008 27.292 21.1987 26.9411 21.9359 26.6426Z" fill="#0D2A55"/>
<path fill-rule="evenodd" clip-rule="evenodd" d="M19.8416 27.6957C21.6963 27.7324 21.6963 27.8377 19.8416 28.0117C19.4943 28.2552 19.5331 28.4308 19.9579 28.5383C20.6676 28.4212 21.3267 28.2105 21.9352 27.9064C21.9553 28.1162 21.8776 28.2916 21.7026 28.433C21.2169 28.6499 20.7128 28.8254 20.1905 28.9596C19.6543 28.8599 19.3054 28.5789 19.1437 28.117C19.2537 27.8208 19.4863 27.6803 19.8416 27.6957Z" fill="#262638"/>
<path fill-rule="evenodd" clip-rule="evenodd" d="M16.8174 28.7489C16.9823 28.5585 17.2149 28.4883 17.5153 28.5383C17.5855 29.0773 17.5078 29.5689 17.2826 30.0127C17.3931 29.4689 17.238 29.0476 16.8174 28.7489Z" fill="#9D7772"/>
<path fill-rule="evenodd" clip-rule="evenodd" d="M25.1936 26.2212C25.4632 28.4312 25.5018 30.6781 25.3099 32.9616C25.2452 33.1546 25.1289 33.2949 24.9609 33.3829C25.1782 31.0037 25.2559 28.6164 25.1936 26.2212Z" fill="#7E4236"/>
<path fill-rule="evenodd" clip-rule="evenodd" d="M22.4002 26.2212C23.3307 26.2212 24.2612 26.2212 25.1917 26.2212C25.2541 28.6164 25.1764 31.0037 24.9591 33.3829C23.8986 35.3406 22.2701 35.797 20.0739 34.7521C19.3667 32.5233 20.2972 31.4 22.8654 31.3818C23.2218 30.8911 23.1441 30.4698 22.6328 30.118C19.0957 30.0573 17.5449 31.6371 17.9802 34.8574C17.7476 34.8574 17.5149 34.8574 17.2823 34.8574C16.5069 34.7872 15.7313 34.7169 14.956 34.6467C13.834 34.3066 13.1361 33.6043 12.8623 32.5404C12.8623 32.0489 12.8623 31.5573 12.8623 31.0659C13.2717 29.9021 14.1248 29.516 15.4212 29.9074C16.0554 30.5138 16.6758 30.5488 17.2823 30.0127C17.5075 29.5689 17.5852 29.0772 17.5149 28.5382C18.0269 28.3137 18.5699 28.1732 19.1433 28.1169C19.305 28.5789 19.654 28.8599 20.1902 28.9595C20.7124 28.8253 21.2165 28.6499 21.7023 28.4329C21.8772 28.2916 21.9549 28.1161 21.9349 27.9063C21.9349 27.485 21.9349 27.0637 21.9349 26.6425C22.0124 26.4318 22.1675 26.2913 22.4002 26.2212Z" fill="#EC6E3D"/>
<path fill-rule="evenodd" clip-rule="evenodd" d="M17.5157 5.57861C19.3409 6.2318 20.8916 7.24982 22.1683 8.63287C27.5795 7.7998 32.6197 8.71271 37.2893 11.3712C43.4147 15.9602 45.3921 21.7527 43.2214 28.7489C42.3241 30.6038 41.5488 32.4995 40.8951 34.4361C38.8782 36.4443 36.4355 37.0061 33.5672 36.1212C30.7347 37.3141 28.2532 36.8928 26.123 34.8574C24.0891 37.1203 21.6465 37.5416 18.7951 36.1212C16.0836 37.0611 13.7573 36.5697 11.8162 34.6468C10.9846 33.2957 10.8296 31.8914 11.351 30.434C12.0123 29.8731 12.7488 29.4518 13.5609 29.1701C14.6606 29.1114 15.746 28.9709 16.8178 28.7489C17.2384 29.0476 17.3935 29.4688 17.283 30.0127C16.6766 30.5488 16.0561 30.5138 15.422 29.9074C14.1255 29.516 13.2725 29.9021 12.8631 31.0659C12.6911 31.0383 12.536 31.0735 12.3978 31.1712C12.5413 31.6508 12.6965 32.1073 12.8631 32.5404C13.1369 33.6043 13.8348 34.3066 14.9567 34.6468C15.703 35.0746 16.4784 35.1449 17.283 34.8574C17.5157 34.8574 17.7483 34.8574 17.9809 34.8574C17.5457 31.6371 19.0964 30.0574 22.6336 30.118C23.1449 30.4698 23.2226 30.8911 22.8662 31.3819C20.2979 31.4 19.3674 32.5233 20.0746 34.7521C22.2709 35.7971 23.8993 35.3406 24.9599 33.3829C25.1278 33.2949 25.2441 33.1546 25.3088 32.9616C25.5007 30.6781 25.4621 28.4312 25.1925 26.2212C24.262 26.2212 23.3314 26.2212 22.4009 26.2212C25.0178 23.8688 26.6462 21.0603 27.2862 17.7957C27.2862 22.7808 27.2862 27.7658 27.2862 32.751C27.1757 33.3435 27.4083 33.7648 27.9841 34.0148C28.2725 34.5389 28.7378 34.925 29.3798 35.1734C30.1552 35.3138 30.9308 35.3138 31.7062 35.1734C32.0416 35.0939 32.2742 34.9185 32.4041 34.6468C33.3406 33.4847 33.108 32.4666 31.7062 31.5925C30.9557 31.3399 30.1803 31.2346 29.3798 31.2765C29.3798 30.9254 29.3798 30.5745 29.3798 30.2233C29.4573 30.2233 29.535 30.2233 29.6125 30.2233C30.7147 29.9438 31.8004 30.0142 32.8693 30.434C34.5066 31.4377 35.127 32.8418 34.7304 34.6468C35.1065 34.9568 35.5718 35.0973 36.1261 35.068C36.4856 35.0657 36.7957 34.9956 37.0567 34.8574C37.5068 34.7205 37.9721 34.6503 38.4525 34.6468C38.9775 33.9561 39.5202 33.254 40.0809 32.5404C40.3542 32.5865 40.5868 32.5164 40.7788 32.3297C40.4791 31.796 40.4791 31.2694 40.7788 30.7499C40.5582 30.6482 40.3256 30.6132 40.0809 30.6446C40.026 30.1237 39.7159 29.7726 39.1503 29.5914C39.222 29.4212 39.3383 29.2807 39.4993 29.1701C39.8608 29.7182 40.3647 29.964 41.0114 29.9074C41.3562 29.116 41.2012 29.0107 40.5461 29.5914C40.34 29.4177 40.2626 29.207 40.3135 28.9595C40.9642 28.8611 41.2745 28.5102 41.244 27.9063C42.5786 24.5211 42.4623 21.1509 40.8951 17.7957C36.9646 11.6796 31.1876 9.25721 23.5641 10.5286C25.9225 14.6567 25.6899 18.6239 22.8662 22.4297C22.6463 22.1152 22.4137 21.7993 22.1683 21.4818C22.7099 20.7147 23.1365 19.9071 23.4478 19.0595C23.8465 19.3597 24.1566 19.2895 24.3783 18.8489C24.6779 17.3877 24.7942 15.9132 24.7272 14.4254C24.4946 14.4254 24.262 14.4254 24.0293 14.4254C24.1056 15.5576 24.0282 16.681 23.7967 17.7957C23.6415 16.6403 23.4866 15.5168 23.3314 14.4254C23.4466 14.0143 23.5241 13.593 23.5641 13.1616C23.3098 12.473 23.1549 11.7708 23.0988 11.0552C22.8662 11.0552 22.6336 11.0552 22.4009 11.0552C22.4412 10.4909 22.6738 9.99929 23.0988 9.58075C22.825 9.05942 22.3597 8.84878 21.703 8.94883C21.703 9.29997 21.703 9.65089 21.703 10.002C21.3955 10.0378 21.124 9.96769 20.8888 9.79139C20.8455 9.28585 20.7292 8.79422 20.5399 8.31692C20.1902 8.20064 19.8027 8.20064 19.3767 8.31692C18.8428 8.11154 18.3776 7.83076 17.9809 7.47436C19.2455 6.62001 19.0129 6.26888 17.283 6.42117C17.2675 6.11385 17.3449 5.83306 17.5157 5.57861Z" fill="#152E4E"/>
<path fill-rule="evenodd" clip-rule="evenodd" d="M34.7305 34.6467C35.4998 34.7628 36.2751 34.8329 37.0568 34.8574C36.7958 34.9955 36.4857 35.0657 36.1263 35.068C35.5719 35.0973 35.1066 34.9568 34.7305 34.6467Z" fill="#915D50"/>
<path fill-rule="evenodd" clip-rule="evenodd" d="M14.9579 34.6467C15.7332 34.7169 16.5088 34.7872 17.2842 34.8574C16.4795 35.1449 15.7042 35.0745 14.9579 34.6467Z" fill="#945F54"/>
<path fill-rule="evenodd" clip-rule="evenodd" d="M29.3801 30.2233C29.3801 30.5744 29.3801 30.9253 29.3801 31.2765C30.1806 31.2345 30.956 31.3399 31.7064 31.5924C33.1083 32.4666 33.3409 33.4846 32.4043 34.6467C31.4087 34.8657 30.4007 34.9007 29.3801 34.752C29.5681 34.6871 29.7233 34.5818 29.8454 34.436C29.4276 34.301 29.0786 34.0904 28.7986 33.8041C28.5634 33.9804 28.2919 34.0506 27.9843 34.0148C27.4086 33.7647 27.176 33.3435 27.2865 32.7509C27.5705 32.6397 27.8417 32.4992 28.1007 32.3297C28.907 32.7193 29.3334 32.5087 29.3801 31.6977C28.9149 31.6977 28.4496 31.6977 27.9843 31.6977C27.7822 30.6873 28.2475 30.1957 29.3801 30.2233Z" fill="#EE6E3E"/>
<path fill-rule="evenodd" clip-rule="evenodd" d="M32.4049 34.6468C32.275 34.9185 32.0424 35.0939 31.707 35.1734C30.9316 35.3138 30.156 35.3138 29.3806 35.1734C28.7386 34.925 28.2733 34.5389 27.9849 34.0148C28.2924 34.0506 28.5639 33.9805 28.7991 33.8042C29.0792 34.0905 29.4281 34.3011 29.8459 34.4361C29.7238 34.5819 29.5686 34.6872 29.3806 34.7521C30.4012 34.9008 31.4092 34.8658 32.4049 34.6468Z" fill="#D8724E"/>
<path fill-rule="evenodd" clip-rule="evenodd" d="M12.8633 31.066C12.8633 31.5574 12.8633 32.049 12.8633 32.5405C12.6968 32.1074 12.5416 31.6509 12.3981 31.1713C12.5363 31.0736 12.6914 31.0384 12.8633 31.066Z" fill="#815D58"/>
<path fill-rule="evenodd" clip-rule="evenodd" d="M38.6848 28.3276C39.3468 28.3386 39.8898 28.5492 40.3132 28.9596C40.2622 29.2071 40.3397 29.4177 40.5458 29.5915C41.2009 29.0107 41.3558 29.1161 41.0111 29.9074C40.3644 29.9641 39.8605 29.7183 39.499 29.1702C39.338 29.2808 39.2217 29.4213 39.15 29.5915C39.7156 29.7726 40.0257 30.1238 40.0806 30.6447C40.3253 30.6133 40.5579 30.6482 40.7785 30.75C40.4788 31.2694 40.4788 31.796 40.7785 32.3298C40.5865 32.5164 40.3539 32.5865 40.0806 32.5404C40.4774 31.1416 39.9345 30.1585 38.4521 29.5915C39.221 29.2614 39.2985 28.8401 38.6848 28.3276Z" fill="#24253D"/>
<path fill-rule="evenodd" clip-rule="evenodd" d="M38.6862 28.3276C39.2999 28.8401 39.2224 29.2614 38.4536 29.5915C37.433 29.464 36.58 29.745 35.8946 30.434C34.9446 29.7252 35.022 29.0933 36.1273 28.5383C36.9564 28.3439 37.8094 28.2737 38.6862 28.3276Z" fill="#132852"/>
<path fill-rule="evenodd" clip-rule="evenodd" d="M39.1495 23.4829C40.5255 24.5013 41.2234 25.8353 41.2432 27.485C40.9205 26.9844 40.7265 26.4228 40.6616 25.7999C39.9842 25.1086 39.17 24.9681 38.219 25.3787C36.8593 25.2146 36.7041 24.7232 37.7537 23.9042C38.1734 23.6371 38.6387 23.4966 39.1495 23.4829Z" fill="#302F4E"/>
<path fill-rule="evenodd" clip-rule="evenodd" d="M33.1031 15.8999C34.0911 15.8321 35.0216 16.0076 35.8947 16.4265C38.8258 18.0994 39.9115 20.4514 39.1515 23.4829C38.6407 23.4966 38.1754 23.6371 37.7557 23.9042C36.7061 24.7232 36.8613 25.2146 38.221 25.3787C39.172 24.9681 39.9862 25.1086 40.6636 25.7999C40.7285 26.4228 40.9226 26.9844 41.2452 27.4851C41.2452 27.6255 41.2452 27.7658 41.2452 27.9063C41.2757 28.5102 40.9654 28.8612 40.3147 28.9595C39.8913 28.5492 39.3483 28.3386 38.6863 28.3276C38.3062 28.1884 37.8797 28.1182 37.4068 28.117C36.8729 28.1269 36.4463 28.2672 36.1273 28.5382C35.0221 29.0933 34.9446 29.7252 35.8947 30.434C36.58 29.745 37.4331 29.464 38.4536 29.5914C39.936 30.1585 40.4789 31.1415 40.0821 32.5404C39.5214 33.254 38.9787 33.9561 38.4536 34.6468C37.9733 34.6503 37.508 34.7205 37.0579 34.8574C36.2762 34.833 35.5009 34.7628 34.7315 34.6468C35.1282 32.8418 34.5078 31.4377 32.8705 30.434C32.3096 29.9369 31.6117 29.7262 30.7768 29.8021C30.279 29.8139 29.8914 29.9544 29.6137 30.2234C29.5362 30.2234 29.4585 30.2234 29.381 30.2234C28.2484 30.1958 27.7831 30.6874 27.9852 31.6978C28.4505 31.6978 28.9158 31.6978 29.381 31.6978C29.3343 32.5088 28.9079 32.7194 28.1016 32.3297C27.8426 32.4993 27.5714 32.6398 27.2874 32.751C27.2874 27.7658 27.2874 22.7809 27.2874 17.7957C27.2874 17.4445 27.2874 17.0936 27.2874 16.7425C28.4945 16.7277 29.7351 16.6574 31.0094 16.5318C31.0094 16.7425 31.0094 16.9531 31.0094 17.1638C30.0068 17.2859 28.9988 17.3563 27.9852 17.3744C27.9913 18.1013 28.3402 18.6631 29.0321 19.0595C29.1461 19.3319 29.1849 19.6129 29.1484 19.9021C28.9158 19.9021 28.6831 19.9021 28.4505 19.9021C28.4505 20.1828 28.4505 20.4638 28.4505 20.7446C29.2435 20.6917 30.0189 20.7621 30.7768 20.9553C30.9625 20.859 31.0399 20.7185 31.0094 20.534C31.7404 19.7675 32.6323 19.2057 33.6847 18.8489C34.7632 18.9683 35.6551 19.3896 36.36 20.1127C36.3655 21.3563 36.1329 22.55 35.6621 23.6936C36.182 23.7557 36.6473 23.6853 37.0579 23.4829C37.5624 23.0953 37.8725 22.6037 37.9884 22.0084C38.6318 21.1261 38.5544 20.2835 37.7557 19.4808C37.1974 18.764 36.4995 18.2022 35.6621 17.7957C35.6821 17.5859 35.6044 17.4104 35.4294 17.2691C34.6578 17.1642 33.8824 17.129 33.1031 17.1638C33.1031 16.7425 33.1031 16.3212 33.1031 15.8999Z" fill="#F06D38"/>
<path fill-rule="evenodd" clip-rule="evenodd" d="M32.8705 30.4341C31.8015 30.0143 30.7159 29.9439 29.6136 30.2234C29.8914 29.9545 30.279 29.814 30.7768 29.8022C31.6117 29.7263 32.3096 29.937 32.8705 30.4341Z" fill="#AA6750"/>
<path fill-rule="evenodd" clip-rule="evenodd" d="M38.6848 28.3276C37.808 28.2737 36.955 28.3438 36.1259 28.5382C36.4448 28.2671 36.8714 28.1268 37.4053 28.1169C37.8783 28.1182 38.3047 28.1883 38.6848 28.3276Z" fill="#5E3D3E"/>
<path fill-rule="evenodd" clip-rule="evenodd" d="M29.6136 27.485C30.1317 27.0412 30.597 26.5498 31.0094 26.0106C30.9422 25.251 31.0197 24.5138 31.2421 23.7988C32.0107 23.5794 32.5148 23.8252 32.7542 24.5361C33.1738 26.3646 32.4371 27.6285 30.5442 28.3276C29.998 28.2543 29.6876 27.9733 29.6136 27.485Z" fill="#192A52"/>
<path fill-rule="evenodd" clip-rule="evenodd" d="M31.0094 26.0107C30.597 26.55 30.1317 27.0414 29.6136 27.4852C29.8109 26.7716 30.2762 26.2801 31.0094 26.0107Z" fill="#603A35"/>
<path fill-rule="evenodd" clip-rule="evenodd" d="M37.9887 22.0083C37.8728 22.6036 37.5628 23.0952 37.0582 23.4828C36.6704 23.4828 36.2828 23.4828 35.895 23.4828C35.932 22.9236 36.1646 22.4321 36.5929 22.0083C36.8081 22.2487 37.0021 22.2487 37.1745 22.0083C37.3197 21.5946 37.2033 21.2435 36.8255 20.9551C37.251 20.7904 37.6 20.9307 37.8724 21.3764C37.9847 21.5761 38.0234 21.7867 37.9887 22.0083Z" fill="#132C54"/>
<path fill-rule="evenodd" clip-rule="evenodd" d="M37.7553 19.4807C38.5539 20.2835 38.6314 21.126 37.9879 22.0084C38.0226 21.7868 37.984 21.5761 37.8716 21.3765C37.5992 20.9307 37.2503 20.7905 36.8248 20.9552C37.2026 21.2435 37.3189 21.5947 37.1737 22.0084C37.0013 22.2487 36.8073 22.2487 36.5921 22.0084C36.1639 22.4322 35.9312 22.9236 35.8943 23.4828C36.282 23.4828 36.6696 23.4828 37.0574 23.4828C36.6468 23.6853 36.1816 23.7556 35.6616 23.6935C36.1325 22.5499 36.3651 21.3562 36.3595 20.1126C36.8248 20.1828 37.29 20.2531 37.7553 20.3233C37.7553 20.0425 37.7553 19.7615 37.7553 19.4807Z" fill="#2E2C3D"/>
<path fill-rule="evenodd" clip-rule="evenodd" d="M32.8696 15.8999C32.7994 16.4389 32.8771 16.9305 33.1022 17.3744C33.8364 17.5711 34.6118 17.7116 35.4285 17.7956C35.506 17.7956 35.5837 17.7956 35.6612 17.7956C36.4986 18.2022 37.1965 18.7639 37.7549 19.4807C37.7549 19.7615 37.7549 20.0425 37.7549 20.3233C37.2896 20.2532 36.8243 20.1828 36.3591 20.1127C35.6542 19.3895 34.7623 18.9683 33.6838 18.8488C32.6314 19.2056 31.7395 19.7674 31.0086 20.5339C30.3051 20.6024 29.9173 20.3216 29.8454 19.6914C30.3169 19.0879 30.7434 18.456 31.1249 17.7956C31.2524 15.2092 29.8952 14.156 27.0538 14.6361C27.0538 14.1446 27.0538 13.653 27.0538 13.1616C29.8722 12.5766 31.8107 13.4893 32.8696 15.8999Z" fill="#152A4F"/>
<path fill-rule="evenodd" clip-rule="evenodd" d="M33.1018 17.3743C33.8039 17.3395 34.5018 17.3747 35.1955 17.4796C35.3248 17.5603 35.4023 17.6656 35.4281 17.7956C34.6113 17.7115 33.836 17.571 33.1018 17.3743Z" fill="#73483E"/>
<path fill-rule="evenodd" clip-rule="evenodd" d="M32.8687 15.8999C32.9461 15.8999 33.0238 15.8999 33.1013 15.8999C33.1013 16.3212 33.1013 16.7425 33.1013 17.1637C33.8806 17.129 34.656 17.1642 35.4276 17.2691C35.6025 17.4104 35.6802 17.5859 35.6602 17.7957C35.5828 17.7957 35.5051 17.7957 35.4276 17.7957C35.4018 17.6657 35.3243 17.5604 35.195 17.4797C34.5013 17.3748 33.8034 17.3396 33.1013 17.3744C32.8761 16.9306 32.7984 16.4389 32.8687 15.8999Z" fill="#CB6946"/>
<path fill-rule="evenodd" clip-rule="evenodd" d="M31.0086 20.534C31.039 20.7186 30.9616 20.8591 30.7759 20.9553C30.018 20.7622 29.2427 20.6918 28.4496 20.7447C28.4496 20.4639 28.4496 20.1829 28.4496 19.9021C28.6822 19.9021 28.9149 19.9021 29.1475 19.9021C29.184 19.6129 29.1452 19.3319 29.0312 19.0596C28.3394 18.6632 27.9904 18.1014 27.9844 17.3745C28.9979 17.3563 30.0059 17.286 31.0086 17.1638C31.0086 16.9532 31.0086 16.7425 31.0086 16.5319C29.7342 16.6575 28.4936 16.7278 27.2865 16.7425C27.3439 16.0182 27.2665 15.3161 27.0538 14.6362C29.8952 14.1561 31.2524 15.2093 31.1249 17.7957C30.7434 18.4561 30.3169 19.088 29.8454 19.6915C29.9173 20.3217 30.3051 20.6025 31.0086 20.534Z" fill="#EA7043"/>
<path fill-rule="evenodd" clip-rule="evenodd" d="M31.0074 41.1766C27.3086 41.0367 23.5865 40.7559 19.8411 40.334C24.3679 40.0979 28.8656 40.3085 33.3337 40.9659C33.3337 40.6148 33.3337 40.2639 33.3337 39.9127C28.8614 39.486 24.3639 39.3807 19.8411 39.5968C18.6349 39.823 18.4798 40.2443 19.3759 40.8606C19.2465 40.9413 19.1691 41.0466 19.1432 41.1766C18.3027 40.687 18.225 40.0903 18.9106 39.3861C23.7959 39.2456 28.6811 39.2456 33.5664 39.3861C34.3957 39.8449 34.4734 40.4065 33.799 41.0712C32.8717 41.1764 31.9412 41.2115 31.0074 41.1766Z" fill="#152F4A"/>
<path fill-rule="evenodd" clip-rule="evenodd" d="M31.0075 41.1766C27.0528 41.1766 23.0981 41.1766 19.1434 41.1766C19.1692 41.0466 19.2466 40.9413 19.376 40.8606C18.4799 40.2443 18.6351 39.823 19.8413 39.5968C24.3641 39.3807 28.8615 39.486 33.3338 39.9127C33.3338 40.2639 33.3338 40.6148 33.3338 40.9659C28.8657 40.3085 24.368 40.0979 19.8413 40.334C23.5866 40.7559 27.3087 41.0367 31.0075 41.1766Z" fill="#0C2952"/>
<path fill-rule="evenodd" clip-rule="evenodd" d="M33.7989 43.7044C33.9541 43.7044 34.0315 43.7745 34.0315 43.915C33.7314 44.0325 33.5377 44.2432 33.45 44.5469C33.0231 44.3868 32.5578 44.3165 32.0542 44.3363C31.7692 44.4125 31.498 44.5178 31.24 44.6522C32.0153 44.7224 32.7909 44.7927 33.5663 44.8629C33.4888 44.933 33.4111 45.0034 33.3336 45.0735C28.8341 45.249 24.3366 45.2138 19.841 44.9682C18.6695 44.652 18.6695 44.2659 19.841 43.8097C24.493 43.7044 29.1456 43.6692 33.7989 43.7044Z" fill="#06284E"/>
<path fill-rule="evenodd" clip-rule="evenodd" d="M33.8012 43.7042C29.1479 43.669 24.4953 43.7042 19.8433 43.8095C18.6718 44.2657 18.6718 44.6518 19.8433 44.968C24.3389 45.2136 28.8364 45.2488 33.3359 45.0733C33.4134 45.0032 33.4911 44.9328 33.5686 44.8627C32.7932 44.7925 32.0176 44.7222 31.2423 44.652C31.5002 44.5176 31.7715 44.4123 32.0565 44.3361C32.5601 44.3163 33.0254 44.3866 33.4523 44.5467C33.54 44.243 33.7337 44.0323 34.0338 43.9148C34.3407 44.3582 34.2632 44.7795 33.8012 45.1786C28.8401 45.4242 23.8774 45.4594 18.9128 45.2839C18.3233 44.7053 18.3233 44.1438 18.9128 43.5988C23.9153 43.4242 28.878 43.4592 33.8012 43.7042Z" fill="#132A43"/>
<path fill-rule="evenodd" clip-rule="evenodd" d="M18.9127 47.7063C23.8761 47.6711 28.8388 47.7063 33.8011 47.8116C34.4059 48.3296 34.4059 48.8562 33.8011 49.3914C28.9177 49.637 24.0324 49.6722 19.1453 49.4967C18.3279 48.9634 18.2504 48.3667 18.9127 47.7063Z" fill="#122D50"/>
<path fill-rule="evenodd" clip-rule="evenodd" d="M21.7035 51.9191C24.8417 51.7093 28.0208 51.6391 31.2414 51.7084C31.2965 51.9804 31.219 52.191 31.0087 52.3404C27.9943 51.9231 24.8926 51.7826 21.7035 51.9191Z" fill="#8C9BAA"/>
<path fill-rule="evenodd" clip-rule="evenodd" d="M21.7035 51.9191C24.8926 51.7826 27.9943 51.9231 31.0087 52.3404C30.2331 54.3084 28.6824 55.3616 26.3561 55.5C23.9509 55.2181 22.4002 54.0244 21.7035 51.9191Z" fill="#0B2A4E"/>
</svg>
